<svg xmlns="http://www.w3.org/2000/svg" viewBox="0 0 240 180" fill="none" stroke="#C85A32" stroke-width="3.5" stroke-linecap="round" stroke-linejoin="round">
  <!-- Organic flaky croissant outline doodle -->
  <path d="M 35,135 C 20,110 30,70 65,45 C 105,18 165,22 195,50 C 220,72 225,115 190,140 C 170,154 140,150 120,135 C 100,120 70,125 50,142 C 42,148 36,145 35,135 Z" fill="#FFF2DF" fill-opacity="0.6"/>
  <!-- Curved ridges of the croissant layers -->
  <path d="M 65,48 C 75,70 78,100 70,124"/>
  <path d="M 105,30 C 115,62 118,98 108,128"/>
  <path d="M 148,28 C 158,60 156,96 142,132"/>
  <path d="M 185,45 C 190,68 185,102 168,135"/>
  <!-- Playful crumb / sesame specks -->
  <circle cx="50" cy="90" r="1.5" fill="#C85A32" stroke="none"/>
  <circle cx="58" cy="105" r="1.5" fill="#C85A32" stroke="none"/>
  <circle cx="95" cy="75" r="1.5" fill="#C85A32" stroke="none"/>
  <circle cx="135" cy="80" r="1.5" fill="#C85A32" stroke="none"/>
  <circle cx="170" cy="95" r="1.5" fill="#C85A32" stroke="none"/>
</svg>
