<svg width="220" height="140" viewBox="0 0 220 140" fill="none" xmlns="http://www.w3.org/2000/svg">
  <g transform="translate(110, 68)">
    <path d="M -54 0 A 54 26 0 0 0 54 0 L 54 10 A 54 26 0 0 1 -54 10 Z" fill="#CBD5E1" stroke="#94A3B8" stroke-width="1.2" />
    <g stroke="#94A3B8" stroke-width="1" opacity="0.6">
      <line x1="-38" y1="18" x2="-38" y2="24" />
      <line x1="-19" y1="23" x2="-19" y2="31" />
      <line x1="0" y1="24" x2="0" y2="34" />
      <line x1="19" y1="23" x2="19" y2="31" />
      <line x1="38" y1="18" x2="38" y2="24" />
    </g>
    <ellipse cx="0" cy="0" rx="54" ry="26" fill="#FFFFFF" stroke="#94A3B8" stroke-width="1.3" />
    <ellipse cx="0" cy="0" rx="46" ry="22" fill="#F8FAFC" stroke="#E2E8F0" stroke-width="1" />
    <path d="M 0 0 L -46 0 A 46 22 0 0 1 23 -19 Z" fill="#EEF2FF" stroke="#6366F1" stroke-width="1.2" />
    <line x1="0" y1="0" x2="-28" y2="-4" stroke="#475569" stroke-width="2" stroke-linecap="round" />
    <line x1="0" y1="0" x2="22" y2="-12" stroke="#6366F1" stroke-width="2" stroke-linecap="round" />
    <circle cx="0" cy="0" r="3" fill="#0F172A" />
  </g>
</svg>