<svg width="600" height="420" viewBox="0 0 600 420" fill="none" xmlns="http://www.w3.org/2000/svg">
  <defs>
    <linearGradient id="why-blue-side" x1="0%" y1="0%" x2="100%" y2="0%">
      <stop offset="0%" stop-color="#4F46E5" />
      <stop offset="50%" stop-color="#6366F1" />
      <stop offset="100%" stop-color="#4338CA" />
    </linearGradient>
    <linearGradient id="why-blue-top" x1="0%" y1="0%" x2="100%" y2="100%">
      <stop offset="0%" stop-color="#818CF8" />
      <stop offset="100%" stop-color="#6366F1" />
    </linearGradient>
    <filter id="why-shadow" x="-10%" y="-10%" width="120%" height="130%">
      <feDropShadow dx="0" dy="20" stdDeviation="14" flood-color="#0F172A" flood-opacity="0.08" />
    </filter>
  </defs>

  <g filter="url(#why-shadow)">
    <!-- Layer 3: Bottom Frosted Pale Slate Sheet -->
    <path d="M 76.05 222.50 L 76.21 224.44 L 76.71 226.36 L 77.52 228.25 L 78.66 230.08 L 80.10 231.83 L 81.83 233.50 L 83.83 235.06 L 86.09 236.50 L 306.06 363.50 L 308.56 364.80 L 311.26 365.96 L 314.15 366.96 L 317.19 367.79 L 320.36 368.45 L 323.62 368.92 L 326.95 369.20 L 330.31 369.30 L 333.67 369.20 L 337.00 368.92 L 340.27 368.45 L 343.43 367.79 L 346.48 366.96 L 349.36 365.96 L 352.07 364.80 L 354.56 363.50 L 513.91 271.50 L 516.17 270.06 L 518.17 268.50 L 519.90 266.83 L 521.34 265.08 L 522.48 263.25 L 523.29 261.36 L 523.79 259.44 L 523.95 257.50 L 523.95 263.50 L 523.79 265.44 L 523.29 267.36 L 522.48 269.25 L 521.34 271.08 L 519.90 272.83 L 518.17 274.50 L 516.17 276.06 L 513.91 277.50 L 354.56 369.50 L 352.07 370.80 L 349.36 371.96 L 346.48 372.96 L 343.43 373.79 L 340.27 374.45 L 337.00 374.92 L 333.67 375.20 L 330.31 375.30 L 326.95 375.20 L 323.62 374.92 L 320.36 374.45 L 317.19 373.79 L 314.15 372.96 L 311.26 371.96 L 308.56 370.80 L 306.06 369.50 L 86.09 242.50 L 83.83 241.06 L 81.83 239.50 L 80.10 237.83 L 78.66 236.08 L 77.52 234.25 L 76.71 232.36 L 76.21 230.44 L 76.05 228.50 Z" fill="#CBD5E1" stroke="#94A3B8" stroke-width="1.2" stroke-linejoin="round" />
    <path d="M 513.91 243.50 L 516.17 244.94 L 518.17 246.50 L 519.90 248.17 L 521.34 249.92 L 522.48 251.75 L 523.29 253.64 L 523.79 255.56 L 523.95 257.50 L 523.79 259.44 L 523.29 261.36 L 522.48 263.25 L 521.34 265.08 L 519.90 266.83 L 518.17 268.50 L 516.17 270.06 L 513.91 271.50 L 354.56 363.50 L 352.07 364.80 L 349.36 365.96 L 346.48 366.96 L 343.43 367.79 L 340.27 368.45 L 337.00 368.92 L 333.67 369.20 L 330.31 369.30 L 326.95 369.20 L 323.62 368.92 L 320.36 368.45 L 317.19 367.79 L 314.15 366.96 L 311.26 365.96 L 308.56 364.80 L 306.06 363.50 L 86.09 236.50 L 83.83 235.06 L 81.83 233.50 L 80.10 231.83 L 78.66 230.08 L 77.52 228.25 L 76.71 226.36 L 76.21 224.44 L 76.05 222.50 L 76.21 220.56 L 76.71 218.64 L 77.52 216.75 L 78.66 214.92 L 80.10 213.17 L 81.83 211.50 L 83.83 209.94 L 86.09 208.50 L 245.44 116.50 L 247.93 115.20 L 250.64 114.04 L 253.52 113.04 L 256.57 112.21 L 259.73 111.55 L 263.00 111.08 L 266.33 110.80 L 269.69 110.70 L 273.05 110.80 L 276.38 111.08 L 279.64 111.55 L 282.81 112.21 L 285.85 113.04 L 288.74 114.04 L 291.44 115.20 L 293.94 116.50 Z" fill="#F8FAFC" stroke="#CBD5E1" stroke-width="1.2" stroke-linejoin="round" />

    <!-- Layer 2: Middle Vibrant Royal Blue Acrylic Sheet -->
    <path d="M 76.05 204.50 L 76.21 206.44 L 76.71 208.36 L 77.52 210.25 L 78.66 212.08 L 80.10 213.83 L 81.83 215.50 L 83.83 217.06 L 86.09 218.50 L 306.06 345.50 L 308.56 346.80 L 311.26 347.96 L 314.15 348.96 L 317.19 349.79 L 320.36 350.45 L 323.62 350.92 L 326.95 351.20 L 330.31 351.30 L 333.67 351.20 L 337.00 350.92 L 340.27 350.45 L 343.43 349.79 L 346.48 348.96 L 349.36 347.96 L 352.07 346.80 L 354.56 345.50 L 513.91 253.50 L 516.17 252.06 L 518.17 250.50 L 519.90 248.83 L 521.34 247.08 L 522.48 245.25 L 523.29 243.36 L 523.79 241.44 L 523.95 239.50 L 523.95 245.50 L 523.79 247.44 L 523.29 249.36 L 522.48 251.25 L 521.34 253.08 L 519.90 254.83 L 518.17 256.50 L 516.17 258.06 L 513.91 259.50 L 354.56 351.50 L 352.07 352.80 L 349.36 353.96 L 346.48 354.96 L 343.43 355.79 L 340.27 356.45 L 337.00 356.92 L 333.67 357.20 L 330.31 357.30 L 326.95 357.20 L 323.62 356.92 L 320.36 356.45 L 317.19 355.79 L 314.15 354.96 L 311.26 353.96 L 308.56 352.80 L 306.06 351.50 L 86.09 224.50 L 83.83 223.06 L 81.83 221.50 L 80.10 219.83 L 78.66 218.08 L 77.52 216.25 L 76.71 214.36 L 76.21 212.44 L 76.05 210.50 Z" fill="url(#why-blue-side)" stroke="#4338CA" stroke-width="1.2" stroke-linejoin="round" />
    <path d="M 513.91 225.50 L 516.17 226.94 L 518.17 228.50 L 519.90 230.17 L 521.34 231.92 L 522.48 233.75 L 523.29 235.64 L 523.79 237.56 L 523.95 239.50 L 523.79 241.44 L 523.29 243.36 L 522.48 245.25 L 521.34 247.08 L 519.90 248.83 L 518.17 250.50 L 516.17 252.06 L 513.91 253.50 L 354.56 345.50 L 352.07 346.80 L 349.36 347.96 L 346.48 348.96 L 343.43 349.79 L 340.27 350.45 L 337.00 350.92 L 333.67 351.20 L 330.31 351.30 L 326.95 351.20 L 323.62 350.92 L 320.36 350.45 L 317.19 349.79 L 314.15 348.96 L 311.26 347.96 L 308.56 346.80 L 306.06 345.50 L 86.09 218.50 L 83.83 217.06 L 81.83 215.50 L 80.10 213.83 L 78.66 212.08 L 77.52 210.25 L 76.71 208.36 L 76.21 206.44 L 76.05 204.50 L 76.21 202.56 L 76.71 200.64 L 77.52 198.75 L 78.66 196.92 L 80.10 195.17 L 81.83 193.50 L 83.83 191.94 L 86.09 190.50 L 245.44 98.50 L 247.93 97.20 L 250.64 96.04 L 253.52 95.04 L 256.57 94.21 L 259.73 93.55 L 263.00 93.08 L 266.33 92.80 L 269.69 92.70 L 273.05 92.80 L 276.38 93.08 L 279.64 93.55 L 282.81 94.21 L 285.85 95.04 L 288.74 96.04 L 291.44 97.20 L 293.94 98.50 Z" fill="url(#why-blue-top)" stroke="#4F46E5" stroke-width="1.2" stroke-linejoin="round" />

    <!-- Layer 1: Top Pure White Document Sheet -->
    <path d="M 76.05 186.50 L 76.21 188.44 L 76.71 190.36 L 77.52 192.25 L 78.66 194.08 L 80.10 195.83 L 81.83 197.50 L 83.83 199.06 L 86.09 200.50 L 306.06 327.50 L 308.56 328.80 L 311.26 329.96 L 314.15 330.96 L 317.19 331.79 L 320.36 332.45 L 323.62 332.92 L 326.95 333.20 L 330.31 333.30 L 333.67 333.20 L 337.00 332.92 L 340.27 332.45 L 343.43 331.79 L 346.48 330.96 L 349.36 329.96 L 352.07 328.80 L 354.56 327.50 L 513.91 235.50 L 516.17 234.06 L 518.17 232.50 L 519.90 230.83 L 521.34 229.08 L 522.48 227.25 L 523.29 225.36 L 523.79 223.44 L 523.95 221.50 L 523.95 227.50 L 523.79 229.44 L 523.29 231.36 L 522.48 233.25 L 521.34 235.08 L 519.90 236.83 L 518.17 238.50 L 516.17 240.06 L 513.91 241.50 L 354.56 333.50 L 352.07 334.80 L 349.36 335.96 L 346.48 336.96 L 343.43 337.79 L 340.27 338.45 L 337.00 338.92 L 333.67 339.20 L 330.31 339.30 L 326.95 339.20 L 323.62 338.92 L 320.36 338.45 L 317.19 337.79 L 314.15 336.96 L 311.26 335.96 L 308.56 334.80 L 306.06 333.50 L 86.09 206.50 L 83.83 205.06 L 81.83 203.50 L 80.10 201.83 L 78.66 200.08 L 77.52 198.25 L 76.71 196.36 L 76.21 194.44 L 76.05 192.50 Z" fill="#E2E8F0" stroke="#94A3B8" stroke-width="1.2" stroke-linejoin="round" />
    <path d="M 513.91 207.50 L 516.17 208.94 L 518.17 210.50 L 519.90 212.17 L 521.34 213.92 L 522.48 215.75 L 523.29 217.64 L 523.79 219.56 L 523.95 221.50 L 523.79 223.44 L 523.29 225.36 L 522.48 227.25 L 521.34 229.08 L 519.90 230.83 L 518.17 232.50 L 516.17 234.06 L 513.91 235.50 L 354.56 327.50 L 352.07 328.80 L 349.36 329.96 L 346.48 330.96 L 343.43 331.79 L 340.27 332.45 L 337.00 332.92 L 333.67 333.20 L 330.31 333.30 L 326.95 333.20 L 323.62 332.92 L 320.36 332.45 L 317.19 331.79 L 314.15 330.96 L 311.26 329.96 L 308.56 328.80 L 306.06 327.50 L 86.09 200.50 L 83.83 199.06 L 81.83 197.50 L 80.10 195.83 L 78.66 194.08 L 77.52 192.25 L 76.71 190.36 L 76.21 188.44 L 76.05 186.50 L 76.21 184.56 L 76.71 182.64 L 77.52 180.75 L 78.66 178.92 L 80.10 177.17 L 81.83 175.50 L 83.83 173.94 L 86.09 172.50 L 245.44 80.50 L 247.93 79.20 L 250.64 78.04 L 253.52 77.04 L 256.57 76.21 L 259.73 75.55 L 263.00 75.08 L 266.33 74.80 L 269.69 74.70 L 273.05 74.80 L 276.38 75.08 L 279.64 75.55 L 282.81 76.21 L 285.85 77.04 L 288.74 78.04 L 291.44 79.20 L 293.94 80.50 Z" fill="#FFFFFF" stroke="#94A3B8" stroke-width="1.4" stroke-linejoin="round" />

    <!-- Content projected in perspective on top slab -->
    <g transform="matrix(0.866025, 0.5, -0.866025, 0.5, 300, 204)">
      <!-- Main Title -->
      <text x="-120" y="-70" font-family="'Plus Jakarta Sans', sans-serif" font-size="18" font-weight="700" fill="#0F172A">Everything you need to know</text>

      <!-- Row 1: 1 Built for scale -->
      <g transform="translate(-120, -36)">
        <rect x="0" y="0" width="24" height="24" rx="6" fill="#FFFFFF" stroke="#475569" stroke-width="1.3" />
        <rect x="0" y="2" width="24" height="24" rx="6" fill="none" stroke="#CBD5E1" stroke-width="1" />
        <text x="12" y="17" font-family="'Plus Jakarta Sans', sans-serif" font-size="13" font-weight="bold" fill="#0F172A" text-anchor="middle">1</text>
        <text x="36" y="18" font-family="'Plus Jakarta Sans', sans-serif" font-size="15" font-weight="600" fill="#0F172A">Built for scale</text>
      </g>

      <!-- Row 2: 2 Simple to set up -->
      <g transform="translate(-120, 2)">
        <rect x="0" y="0" width="24" height="24" rx="6" fill="#FFFFFF" stroke="#475569" stroke-width="1.3" />
        <rect x="0" y="2" width="24" height="24" rx="6" fill="none" stroke="#CBD5E1" stroke-width="1" />
        <text x="12" y="17" font-family="'Plus Jakarta Sans', sans-serif" font-size="13" font-weight="bold" fill="#0F172A" text-anchor="middle">2</text>
        <text x="36" y="18" font-family="'Plus Jakarta Sans', sans-serif" font-size="15" font-weight="600" fill="#0F172A">Simple to set up</text>
      </g>

      <!-- Row 3: 3 Powerful automation -->
      <g transform="translate(-120, 40)">
        <rect x="0" y="0" width="24" height="24" rx="6" fill="#FFFFFF" stroke="#475569" stroke-width="1.3" />
        <rect x="0" y="2" width="24" height="24" rx="6" fill="none" stroke="#CBD5E1" stroke-width="1" />
        <text x="12" y="17" font-family="'Plus Jakarta Sans', sans-serif" font-size="13" font-weight="bold" fill="#0F172A" text-anchor="middle">3</text>
        <text x="36" y="18" font-family="'Plus Jakarta Sans', sans-serif" font-size="15" font-weight="600" fill="#0F172A">Powerful automation</text>
      </g>

      <!-- Row 4: 4 Enterprise-ready -->
      <g transform="translate(-120, 78)">
        <rect x="0" y="0" width="24" height="24" rx="6" fill="#FFFFFF" stroke="#475569" stroke-width="1.3" />
        <rect x="0" y="2" width="24" height="24" rx="6" fill="none" stroke="#CBD5E1" stroke-width="1" />
        <text x="12" y="17" font-family="'Plus Jakarta Sans', sans-serif" font-size="13" font-weight="bold" fill="#0F172A" text-anchor="middle">4</text>
        <text x="36" y="18" font-family="'Plus Jakarta Sans', sans-serif" font-size="15" font-weight="600" fill="#0F172A">Enterprise-ready</text>
      </g>
    </g>
  </g>
</svg>